<svg width="279" height="299" viewBox="0 0 279 299" fill="none" xmlns="http://www.w3.org/2000/svg">
<path d="M217.044 276.018L219 297.087C216.474 297.648 213.459 298.05 209.956 298.291C206.533 298.612 203.274 298.772 200.178 298.772C195.126 298.772 190.685 297.97 186.856 296.364C183.107 294.679 180.174 291.629 178.056 287.214C176.019 282.8 175 276.419 175 268.072V200.772H210.2V270.961C210.2 273.209 210.811 274.694 212.033 275.416C213.337 276.138 215.007 276.339 217.044 276.018Z" fill="#A5CCFF"/>
<path d="M164.039 274.264C164.039 277.564 164.079 281.145 164.159 285.009C164.319 288.872 164.6 292.816 165 296.84H131.486C131.166 294.184 131.006 291.568 131.006 288.993C131.006 286.337 131.046 283.681 131.126 281.025H130.045C129.965 283.761 129.244 286.498 127.883 289.234C126.602 291.971 124.6 294.265 121.877 296.116C119.234 297.887 115.831 298.772 111.667 298.772C105.34 298.772 100.375 297.605 96.7718 295.271C93.1682 292.937 90.5255 289.838 88.8438 285.975C87.1622 282.031 86.0811 277.725 85.6006 273.056C85.2002 268.388 85 263.72 85 259.051C85 253.9 85.2803 248.99 85.8408 244.322C86.4815 239.573 87.6827 235.388 89.4444 231.766C91.2062 228.064 93.8088 225.166 97.2523 223.073C100.696 220.981 105.26 219.975 110.946 220.055C115.591 220.055 119.314 220.779 122.117 222.228C125 223.597 127.282 225.287 128.964 227.299V199.772H164.039V274.264ZM126.802 267.382V251.083C126.802 250.842 126.642 250.238 126.321 249.272C126.081 248.306 125.16 247.823 123.559 247.823C121.957 247.823 120.996 248.306 120.676 249.272C120.435 250.238 120.315 250.842 120.315 251.083V267.382C120.315 267.704 120.435 268.348 120.676 269.314C120.996 270.199 121.957 270.642 123.559 270.642C125.16 270.642 126.081 270.199 126.321 269.314C126.642 268.348 126.802 267.704 126.802 267.382Z" fill="#A5CCFF"/>
<path d="M52.32 221.772C58.32 221.772 63.04 222.538 66.48 224.069C69.92 225.6 72.44 227.736 74.04 230.475C75.72 233.135 76.8 236.237 77.28 239.783C77.76 243.329 78 247.116 78 251.146V298.651L42.84 298.772V253.926C42.84 253.684 42.68 253.08 42.36 252.113C42.12 251.146 41.2 250.662 39.6 250.662C38 250.662 37.04 251.146 36.72 252.113C36.48 253.08 36.36 253.684 36.36 253.926V298.651H0.840001V250.058C0.840001 247.479 0.840001 243.732 0.840001 238.816C0.920001 233.9 0.64 228.864 0 223.706H30.48C31.44 228.783 31.92 234.021 31.92 239.421H33C33 236.278 33.64 233.377 34.92 230.717C36.2 228.058 38.24 225.922 41.04 224.311C43.92 222.618 47.68 221.772 52.32 221.772Z" fill="#A5CCFF"/>
<path d="M207 191.858H176.297C175.977 190.343 175.697 188.787 175.457 187.192C175.297 185.518 175.217 183.524 175.217 181.211H174.138C174.138 182.886 173.538 184.72 172.339 186.714C171.219 188.628 169.38 190.303 166.822 191.738C164.263 193.094 160.825 193.772 156.507 193.772C150.59 193.772 145.913 192.775 142.475 190.781C139.037 188.787 136.598 186.235 135.159 183.125C133.72 179.935 133 176.505 133 172.837V167.094C133 159.438 135.399 153.855 140.196 150.346C144.994 146.837 153.109 145.082 164.543 145.082C166.142 145.082 167.741 145.122 169.34 145.202C171.019 145.281 172.778 145.401 174.617 145.56C174.777 144.205 174.538 143.208 173.898 142.57C173.338 141.932 172.619 141.573 171.739 141.493C170.22 141.334 168.741 141.214 167.301 141.134C165.942 140.975 164.583 140.895 163.224 140.895C156.827 140.895 151.43 141.653 147.032 143.168C142.715 144.683 139.317 146.159 136.838 147.594L134.679 121.754C141.715 119.68 148.272 118.165 154.348 117.208C160.505 116.251 166.142 115.772 171.259 115.772C182.293 115.772 190.809 118.005 196.805 122.472C202.882 126.858 205.921 133.278 205.921 141.732V177.981C206.16 182.686 206.52 187.312 207 191.858ZM172.219 169.367V161.83C172.219 161.511 172.059 160.913 171.739 160.036C171.499 159.079 170.58 158.6 168.981 158.6C167.381 158.6 166.422 159.079 166.102 160.036C165.862 160.913 165.742 161.511 165.742 161.83V169.367C165.742 169.607 165.862 170.205 166.102 171.162C166.422 172.119 167.381 172.597 168.981 172.597C170.58 172.597 171.499 172.119 171.739 171.162C172.059 170.205 172.219 169.607 172.219 169.367Z" fill="#A5CCFF"/>
<path d="M69.4444 119.801V82.7721H125V214.772H69.4444V172.258H55.5556V214.772H0V82.7721H55.5556V119.801H69.4444Z" fill="#A5CCFF"/>
<path d="M124.701 1.45218C176.979 18.086 225.49 44.979 267.296 80.5032C272.842 85.3383 276.628 91.8373 278.056 98.9693C279.483 106.101 278.469 113.458 275.176 119.872L266.67 135.215C265.274 137.733 263.385 139.946 261.11 141.727C258.836 143.508 256.221 144.823 253.415 145.595C247.748 147.155 241.646 146.414 236.451 143.534L212.946 130.504C210.374 129.078 208.102 127.17 206.26 124.889C204.418 122.607 203.041 119.998 202.21 117.208C201.378 114.419 201.107 111.505 201.413 108.633C201.719 105.76 202.595 102.985 203.991 100.467L207.435 94.2532C207.705 93.7709 207.778 93.2026 207.641 92.6618C207.504 92.1211 207.167 91.6477 206.697 91.3364C187.937 78.8209 168.175 67.8659 147.621 58.5867C147.108 58.3526 146.528 58.3173 145.997 58.4876C145.465 58.658 145.022 59.0215 144.756 59.5055L141.311 65.7192C139.915 68.2378 138.026 70.4508 135.752 72.2319C133.477 74.013 130.863 75.3273 128.056 76.0999C122.389 77.6601 116.287 76.9187 111.092 74.0388L87.5873 61.0085C85.0151 59.5825 82.743 57.6744 80.9009 55.3932C79.0587 53.1119 77.6826 50.5022 76.851 47.7131C76.0194 44.9239 75.7487 42.0098 76.0542 39.1373C76.3598 36.2648 77.2357 33.4901 78.6319 30.9715L87.1374 15.629C90.832 9.43707 96.5341 4.67965 103.339 2.1114C110.144 -0.456851 117.662 -0.688855 124.701 1.45218Z" fill="#A5CCFF"/>
</svg>
