<svg width="722" height="253" viewBox="0 0 722 253" fill="none" xmlns="http://www.w3.org/2000/svg">
<path d="M81.81 137.66V94.0276H147.258V249.568H81.81V199.472H65.448V249.568H0V94.0276H65.448V137.66H81.81Z" fill="white"/>
<path d="M279.633 249.568H227.921C227.382 247.009 226.911 244.383 226.507 241.69C226.237 238.862 226.103 235.495 226.103 231.59H224.285C224.285 234.418 223.275 237.515 221.255 240.882C219.369 244.114 216.272 246.942 211.963 249.366C207.653 251.655 201.863 252.8 194.591 252.8C184.625 252.8 176.747 251.116 170.957 247.75C165.166 244.383 161.059 240.074 158.635 234.822C156.211 229.435 154.999 223.644 154.999 217.45V207.754C154.999 194.826 159.039 185.399 167.119 179.474C175.199 173.548 188.867 170.586 208.125 170.586C210.818 170.586 213.511 170.653 216.205 170.788C219.033 170.922 221.995 171.124 225.093 171.394C225.362 169.104 224.958 167.421 223.881 166.344C222.938 165.266 221.726 164.66 220.245 164.526C217.686 164.256 215.195 164.054 212.771 163.92C210.481 163.65 208.192 163.516 205.903 163.516C195.129 163.516 186.039 164.795 178.633 167.354C171.361 169.912 165.637 172.404 161.463 174.828L157.827 131.196C169.677 127.694 180.72 125.136 190.955 123.52C201.324 121.904 210.818 121.096 219.437 121.096C238.021 121.096 252.363 124.866 262.463 132.408C272.697 139.814 277.815 150.655 277.815 164.93V226.136C278.219 234.081 278.825 241.892 279.633 249.568ZM221.053 211.592V198.866C221.053 198.327 220.783 197.317 220.245 195.836C219.841 194.22 218.292 193.412 215.599 193.412C212.905 193.412 211.289 194.22 210.751 195.836C210.347 197.317 210.145 198.327 210.145 198.866V211.592C210.145 211.996 210.347 213.006 210.751 214.622C211.289 216.238 212.905 217.046 215.599 217.046C218.292 217.046 219.841 216.238 220.245 214.622C220.783 213.006 221.053 211.996 221.053 211.592Z" fill="white"/>
<path d="M373.092 121.096C383.192 121.096 391.138 122.375 396.928 124.934C402.719 127.492 406.961 131.061 409.654 135.64C412.482 140.084 414.3 145.268 415.108 151.194C415.916 157.119 416.32 163.448 416.32 170.182V249.568L357.134 249.77V174.828C357.134 174.424 356.865 173.414 356.326 171.798C355.922 170.182 354.374 169.374 351.68 169.374C348.987 169.374 347.371 170.182 346.832 171.798C346.428 173.414 346.226 174.424 346.226 174.828V249.568H286.434V168.364C286.434 164.054 286.434 157.792 286.434 149.578C286.569 141.363 286.098 132.946 285.02 124.328H336.328C337.944 132.812 338.752 141.565 338.752 150.588H340.57C340.57 145.336 341.648 140.488 343.802 136.044C345.957 131.6 349.391 128.031 354.104 125.338C358.952 122.51 365.282 121.096 373.092 121.096Z" fill="white"/>
<path d="M555.214 211.794C555.214 217.315 555.282 223.308 555.416 229.772C555.686 236.236 556.157 242.834 556.83 249.568H500.472C499.934 245.124 499.664 240.747 499.664 236.438C499.664 231.994 499.732 227.55 499.866 223.106H498.048C497.914 227.684 496.702 232.263 494.412 236.842C492.258 241.42 488.891 245.258 484.312 248.356C479.868 251.318 474.145 252.8 467.142 252.8C456.504 252.8 448.154 250.847 442.094 246.942C436.034 243.036 431.59 237.852 428.762 231.388C425.934 224.789 424.116 217.584 423.308 209.774C422.635 201.963 422.298 194.152 422.298 186.342C422.298 177.723 422.77 169.508 423.712 161.698C424.79 153.752 426.81 146.75 429.772 140.69C432.735 134.495 437.112 129.647 442.902 126.146C448.693 122.644 456.369 120.961 465.93 121.096C473.741 121.096 480.003 122.308 484.716 124.732C489.564 127.021 493.402 129.849 496.23 133.216V87.1596H555.214V211.794ZM492.594 200.28V173.01C492.594 172.606 492.325 171.596 491.786 169.98C491.382 168.364 489.834 167.556 487.14 167.556C484.447 167.556 482.831 168.364 482.292 169.98C481.888 171.596 481.686 172.606 481.686 173.01V200.28C481.686 200.818 481.888 201.896 482.292 203.512C482.831 204.993 484.447 205.734 487.14 205.734C489.834 205.734 491.382 204.993 491.786 203.512C492.325 201.896 492.594 200.818 492.594 200.28Z" fill="white"/>
<path d="M634.25 213.41L637.482 248.76C633.307 249.702 628.325 250.376 622.534 250.78C616.878 251.318 611.491 251.588 606.374 251.588C598.025 251.588 590.685 250.241 584.356 247.548C578.161 244.72 573.313 239.602 569.812 232.196C566.445 224.789 564.762 214.083 564.762 200.078V87.1596H622.938V204.926C622.938 208.696 623.948 211.188 625.968 212.4C628.123 213.612 630.883 213.948 634.25 213.41Z" fill="white"/>
<path d="M570.018 1.69812C621.878 19.5963 669.721 47.6592 710.653 84.1879C716.079 89.1562 719.707 95.7453 720.961 102.91C722.214 110.074 721.022 117.404 717.574 123.736L708.698 138.868C707.241 141.352 705.299 143.518 702.982 145.244C700.665 146.969 698.019 148.22 695.195 148.924C689.492 150.346 683.41 149.457 678.286 146.451L655.105 132.854C652.568 131.366 650.343 129.404 648.557 127.078C646.77 124.753 645.458 122.111 644.694 119.302C643.931 116.494 643.731 113.574 644.106 110.71C644.481 107.845 645.424 105.093 646.881 102.609L650.476 96.4805C650.757 96.0049 650.844 95.4385 650.72 94.8946C650.596 94.3507 650.271 93.8693 649.808 93.5466C631.357 80.5793 611.868 69.1478 591.545 59.3723C591.038 59.1258 590.458 59.0764 589.923 59.2338C589.388 59.3912 588.936 59.7438 588.658 60.2212L585.064 66.3495C583.607 68.8334 581.665 70.9999 579.348 72.7253C577.031 74.4506 574.385 75.7011 571.561 76.4053C565.857 77.8275 559.775 76.9381 554.651 73.933L531.47 60.3358C528.933 58.8477 526.708 56.8851 524.922 54.5598C523.136 52.2345 521.823 49.5921 521.06 46.7836C520.296 43.975 520.096 41.0553 520.471 38.1911C520.847 35.3268 521.79 32.5742 523.247 30.0903L532.122 14.9587C535.966 8.85835 541.782 4.24077 548.647 1.8385C555.512 -0.563778 563.034 -0.613182 570.018 1.69812Z" fill="white"/>
</svg>
